<svg width="143" height="22" viewBox="0 0 143 22" fill="none" xmlns="http://www.w3.org/2000/svg">
<path d="M5.48 20.9075C5.89536 21.3101 5.60184 22 5.01202 22H1.32085C0.592582 22 0 21.4256 0 20.7196V17.1413C0 16.5695 0.711652 16.285 1.12701 16.6876L5.48 20.9075Z" fill="#0A1551"/>
<path d="M11.2496 21.1857C10.157 20.1002 10.157 18.3403 11.2496 17.2549L15.1928 13.3374C16.2854 12.2519 18.0569 12.2519 19.1495 13.3374C20.2421 14.4228 20.2421 16.1828 19.1495 17.2682L15.2063 21.1857C14.1137 22.2712 12.3422 22.2712 11.2496 21.1857Z" fill="#FFB628"/>
<path d="M0.831657 11.3423C-0.260943 10.2569 -0.260943 8.49695 0.831658 7.41147L7.46763 0.814111C8.56023 -0.27137 10.3317 -0.271371 11.4243 0.81411C12.5169 1.89959 12.5169 3.6595 11.4243 4.74498L4.78831 11.3423C3.69571 12.4278 1.92426 12.4278 0.831657 11.3423Z" fill="#0099FF"/>
<path d="M6.25744 16.0445C5.16484 14.959 5.16484 13.1991 6.25744 12.1136L15.2239 3.20565C16.3165 2.12017 18.0879 2.12017 19.1805 3.20565C20.2731 4.29113 20.2731 6.05104 19.1805 7.13652L10.2141 16.0445C9.1215 17.13 7.35004 17.13 6.25744 16.0445Z" fill="#FF6100"/>
<path fill-rule="evenodd" clip-rule="evenodd" d="M96.788 16.4183C96.0274 16.4183 95.303 16.1411 94.769 15.6045C94.2366 15.0696 93.8771 14.2602 93.8771 13.1659C93.8771 12.0584 94.237 11.2496 94.7685 10.7184C95.3018 10.1854 96.026 9.91348 96.788 9.91348C97.5501 9.91348 98.2742 10.1854 98.8075 10.7184C99.339 11.2496 99.6989 12.0584 99.6989 13.1659C99.6989 14.2734 99.339 15.0822 98.8075 15.6135C98.2742 16.1464 97.5501 16.4183 96.788 16.4183ZM96.788 6.37787C92.9254 6.37787 90 9.21976 90 13.1659C90 17.0864 92.9248 19.9539 96.788 19.9539C100.651 19.9539 103.576 17.0864 103.576 13.1659C103.576 9.21976 100.651 6.37787 96.788 6.37787Z" fill="#0A1551"/>
<path fill-rule="evenodd" clip-rule="evenodd" d="M53.2818 16.5136C52.5212 16.5136 51.7968 16.2364 51.2628 15.6998C50.7304 15.1649 50.3709 14.3555 50.3709 13.2612C50.3709 12.1537 50.7308 11.3449 51.2623 10.8137C51.7955 10.2807 52.5197 10.0088 53.2818 10.0088C54.0438 10.0088 54.768 10.2807 55.3012 10.8137C55.8327 11.3449 56.1926 12.1537 56.1926 13.2612C56.1926 14.3687 55.8327 15.1775 55.3012 15.7088C54.768 16.2417 54.0438 16.5136 53.2818 16.5136ZM53.2818 6.47314C49.4192 6.47314 46.4937 9.31503 46.4937 13.2612C46.4937 17.1817 49.4185 20.0492 53.2818 20.0492C57.145 20.0492 60.0698 17.1817 60.0698 13.2612C60.0698 9.31503 57.1443 6.47314 53.2818 6.47314Z" fill="#0A1551"/>
<path fill-rule="evenodd" clip-rule="evenodd" d="M32 13.5942H35.7574L35.8001 13.6359C35.8287 13.6639 35.8485 13.7038 35.8525 13.7482C35.9253 14.5711 36.2486 15.1917 36.7324 15.6051C37.2138 16.0165 37.8368 16.208 38.4859 16.208C39.278 16.208 39.9258 15.9162 40.3733 15.409C40.8183 14.9047 41.05 14.2053 41.05 13.4125V2.42944H45.1124V13.5261C45.1124 17.0785 42.3947 20.0494 38.5143 20.0494C36.5758 20.0494 34.9503 19.4052 33.8104 18.2875C32.6968 17.1955 32.0318 15.637 32.0023 13.7433L32 13.5942Z" fill="#0A1551"/>
<path fill-rule="evenodd" clip-rule="evenodd" d="M68.4462 16.8448L68.6468 16.7836V19.7699L68.5545 19.8147C68.4133 19.8833 68.186 19.9454 67.9236 19.9906C67.6578 20.0364 67.3443 20.0669 67.0248 20.0669C65.7798 20.0669 64.3875 19.6267 63.6628 18.8338C62.9384 18.0413 62.5389 16.9118 62.5389 15.5604V9.53366H60.7192V6.13484H62.5389V2.44696H66.1835V6.13484H68.6468V9.53366H66.1835V15.513C66.1835 16.1202 66.3824 16.4698 66.6365 16.6735C66.8987 16.8835 67.2431 16.9569 67.5574 16.9569C68.0299 16.9569 68.3038 16.8883 68.4462 16.8448Z" fill="#0A1551"/>
<path fill-rule="evenodd" clip-rule="evenodd" d="M88.727 16.8448L88.9276 16.7836V19.7699L88.8353 19.8147C88.6941 19.8833 88.4668 19.9454 88.2044 19.9906C87.9386 20.0364 87.6251 20.0669 87.3056 20.0669C86.0606 20.0669 84.6683 19.6267 83.9436 18.8338C83.2192 18.0413 82.8197 16.9118 82.8197 15.5604V9.53366H81V6.13484H82.8197V2.44696H86.4643V6.13484H88.9276V9.53366H86.4643V15.513C86.4643 16.1202 86.6632 16.4698 86.9173 16.6735C87.1795 16.8835 87.5239 16.9569 87.8382 16.9569C88.3107 16.9569 88.5846 16.8883 88.727 16.8448Z" fill="#0A1551"/>
<path d="M69.7686 16.3695C69.9276 17.8535 71.2791 20.3975 75.2011 20.3975C78.6196 20.3975 80.2626 18.2245 80.2626 16.1045C80.2626 14.1965 78.9641 12.633 76.3936 12.103L74.5386 11.7055C73.8231 11.573 73.3461 11.1755 73.3461 10.5395C73.3461 9.79751 74.0881 9.24101 75.0156 9.24101C76.4996 9.24101 77.0561 10.2215 77.1621 10.99L80.1036 10.3275C79.9446 8.92301 78.6991 6.56451 74.9891 6.56451C72.1801 6.56451 70.1131 8.49901 70.1131 10.831C70.1131 12.6595 71.2526 14.17 73.7701 14.7265L75.4926 15.124C76.4996 15.336 76.8971 15.813 76.8971 16.396C76.8971 17.085 76.3406 17.6945 75.1746 17.6945C73.6376 17.6945 72.8691 16.7405 72.7896 15.707L69.7686 16.3695Z" fill="#0A1551"/>
<path d="M132 16.3695C132.159 17.8535 133.511 20.3975 137.433 20.3975C140.851 20.3975 142.494 18.2245 142.494 16.1045C142.494 14.1965 141.196 12.633 138.625 12.103L136.77 11.7055C136.055 11.573 135.578 11.1755 135.578 10.5395C135.578 9.79751 136.319 9.24101 137.247 9.24101C138.731 9.24101 139.288 10.2215 139.394 10.99L142.335 10.3275C142.176 8.92301 140.931 6.56451 137.221 6.56451C134.412 6.56451 132.345 8.49901 132.345 10.831C132.345 12.6595 133.484 14.17 136.002 14.7265L137.724 15.124C138.731 15.336 139.128 15.813 139.128 16.396C139.128 17.085 138.572 17.6945 137.406 17.6945C135.869 17.6945 135.101 16.7405 135.021 15.707L132 16.3695Z" fill="#0A1551"/>
<path d="M111.337 9.7595C113.086 9.7595 113.908 10.8725 114.226 11.959L117.379 10.899C116.822 8.6995 114.809 6.5 111.258 6.5C107.468 6.5 104.5 9.3885 104.5 13.4165C104.5 17.418 107.521 20.333 111.364 20.333C114.835 20.333 116.876 18.107 117.458 15.934L114.358 14.9005C114.067 15.9075 113.166 17.1 111.364 17.1C109.562 17.1 108.025 15.775 108.025 13.4165C108.025 11.058 109.535 9.7595 111.337 9.7595Z" fill="#0A1551"/>
<path d="M131.641 7.148H127.03L122.525 11.9975V1H119V20.186H122.525V16.741L123.982 15.204L127.427 20.186H131.747L126.42 12.6335L131.641 7.148Z" fill="#0A1551"/>
</svg>
